HIERARCHY
ROOT pelvis
{
  OFFSET 0 100 0
  CHANNELS 6 Xposition Yposition Zposition Zrotation Xrotation Yrotation
  JOINT pelvis_right_femur
  {
    OFFSET -10.78128 -3.44521 -0.5502486
    CHANNELS 3 Zrotation Xrotation Yrotation
    JOINT right_femur_tibia
    {
      OFFSET -0.8047443 -44.0398 -0.1307829
      CHANNELS 3 Zrotation Xrotation Yrotation
      JOINT right_tibia_foot
      {
        OFFSET 3.006224 -47.83518 -5
        CHANNELS 3 Zrotation Xrotation Yrotation
        End Site
        {
          OFFSET 0 -5 15
        }
      }
    }
  }
  JOINT pelvis_left_femur
  {
    OFFSET 10.78128 -3.44521 -0.5502486
    CHANNELS 3 Zrotation Xrotation Yrotation
    JOINT left_femur_tibia
    {
      OFFSET 0.8047443 -44.0398 -0.1307829
      CHANNELS 3 Zrotation Xrotation Yrotation
      JOINT left_tibia_foot
      {
        OFFSET -4.370144 -48.10324 -4.275266
        CHANNELS 3 Zrotation Xrotation Yrotation
        End Site
        {
          OFFSET 0 -5 15
        }
      }
    }
  }
  JOINT pelvis_spine1
  {
    OFFSET 0 6.468898 -3.129235
    CHANNELS 3 Zrotation Xrotation Yrotation
    JOINT spine1
    {
      OFFSET 0 23.15396 4.99043
      CHANNELS 3 Zrotation Xrotation Yrotation
      JOINT spine2
      {
        OFFSET 0 20.79997 -5.064912
        CHANNELS 3 Zrotation Xrotation Yrotation
        JOINT neck
        {
          OFFSET 0 14.38658 9.616178
          CHANNELS 3 Zrotation Xrotation Yrotation
          End Site
          {
            OFFSET 0 20 0
          }
        }
      }
      JOINT right_manubrium
      {
        OFFSET -5.722621 16.35077 3.967754
        CHANNELS 3 Zrotation Xrotation Yrotation
        JOINT right_clavicle
        {
          OFFSET -13.16364 1.694482 -4.693211
          CHANNELS 3 Zrotation Xrotation Yrotation
          JOINT right_humerus
          {
            OFFSET -28.5034 -0.3100689 -2.792744
            CHANNELS 3 Zrotation Xrotation Yrotation
            JOINT right_radius
            {
              OFFSET -25.15693 0.02248979 -1.271978
              CHANNELS 3 Zrotation Xrotation Yrotation
              End Site
              {
                OFFSET -15 0 0
              }
            }
          }
        }
      }
      JOINT left_manubrium
      {
        OFFSET 5.722621 16.35077 3.967754
        CHANNELS 3 Zrotation Xrotation Yrotation
        JOINT left_clavicle
        {
          OFFSET 13.16364 1.694482 -4.693211
          CHANNELS 3 Zrotation Xrotation Yrotation
          JOINT left_humerus
          {
            OFFSET 29.39168 -1.063119 -2.237045
            CHANNELS 3 Zrotation Xrotation Yrotation
            JOINT left_radius
            {
              OFFSET 24.59957 -0.9528479 0.9047498
              CHANNELS 3 Zrotation Xrotation Yrotation
              End Site
              {
                OFFSET 15 -0 -0
              }
            }
          }
        }
      }
    }
  }
}
MOTION
Frames: 13
Frame Time: 0.0416666666667
0 103.5113 0 0.1397875 -0.6346518 0.241102 3.930584 -15.45028 7.908162 -0 39.75087 -0 -7.461975 -15.28239 -2.930595 -6.559626 5.722242 -22.75582 -0 5.114869 -0 5.858428 -17.3319 24.46978 -1.271782 -1.330791 4.652149 3.093298 7.241764 -8.408859 1.023874 21.10588 7.291768 2.279748 -27.40763 9.675721 4.940224 -19.59551 11.3318 88.26938 36.58768 -22.83495 -0 0 15.4329 -6.738445 10.37804 5.665528 3.375775 -18.75445 -1.184343 -97.79901 38.67042 28.66085 0 0 -25.62296 -7.975586 11.81044 27.44984
0.4737473 103.4006 1.510399 0.1925108 -0.5970144 0.5494518 3.765311 -16.40888 7.836124 -0 40.8326 -0 -7.327147 -14.71104 -2.993149 -6.653462 6.772491 -22.96289 -0 3.885343 -0 6.034203 -17.85893 24.50083 -1.172433 -1.501966 4.591497 3.249546 7.299761 -8.639239 0.9517616 21.00907 7.317053 2.293298 -27.95971 9.716433 4.884396 -19.84561 11.39966 88.85921 36.7019 -23.64717 -0 0 15.32738 -5.944848 10.09792 5.280987 3.384057 -19.06812 -1.19765 -98.22594 38.87207 29.25323 0 0 -26.22 -7.900019 12.24481 27.44806
0.8505245 103.2602 3.248178 0.1402615 -0.5967137 0.8791605 3.975131 -19.41961 7.355258 -0 39.03892 -0 -7.313034 -13.36132 -3.3183 -6.456141 9.514092 -22.41792 -0 5.21127 -0 5.582455 -18.54034 23.60225 -1.405559 -1.234712 4.745099 2.8929 7.422635 -8.115256 1.009434 21.18021 7.327078 2.477216 -26.76948 9.475544 5.086656 -19.44298 11.38242 87.41488 36.64652 -21.58569 -0 0 15.54852 -7.911151 10.66184 6.225896 3.550641 -18.67094 -1.274994 -96.98688 37.18633 27.77537 0 0 -24.32215 -6.77597 12.02844 25.56517
1.165496 103.0115 5.156682 0.1097818 -0.468686 1.248745 4.029813 -22.16989 6.836346 -0 37.24483 -0 -7.274422 -12.31204 -3.518879 -6.303703 11.88045 -22.04158 -0 4.796948 -0 5.375061 -19.41101 22.9373 -1.444662 -1.223551 4.61527 2.901881 7.483784 -8.174165 0.9955725 21.20441 7.371905 2.557255 -26.62118 9.443394 5.11042 -19.18904 11.37936 87.6037 36.64035 -21.82774 -0 0 15.07753 -8.100597 10.70782 6.204579 3.699744 -18.89507 -1.368834 -96.2315 36.73778 26.7444 0 0 -24.54617 -6.147164 12.22334 24.63023
1.383255 102.5782 7.32949 0.008277113 -0.2994243 1.602387 4.254223 -25.14814 6.124693 -0 33.24033 -0 -7.363015 -11.43773 -3.718842 -5.993758 14.15112 -21.25004 -0 5.244686 -0 4.889347 -20.14412 21.92586 -1.50553 -1.193286 4.454214 2.895317 7.565347 -8.224495 0.9832994 21.24571 7.427341 2.664181 -26.36702 9.391927 5.145484 -18.83804 11.37115 87.78384 36.61452 -22.04554 -0 0 14.47808 -8.442957 10.79528 6.223247 3.896789 -19.16118 -1.493309 -95.22845 36.07634 25.3615 0 0 -24.75548 -5.298633 12.43313 23.36134
1.516017 101.8965 9.844622 -0.08297346 -0.1825465 1.935625 4.358293 -27.76356 5.221104 -0 28.58519 -0 -7.383309 -10.51566 -3.874697 -5.667099 16.02209 -20.16981 -0 5.445645 -0 4.259323 -20.81605 20.78854 -1.535637 -1.194781 4.231576 2.954339 7.615104 -8.381842 0.9673543 21.26775 7.487028 2.738957 -26.27783 9.389489 5.146845 -18.47536 11.3523 88.27193 36.58103 -22.70515 -0 0 13.72164 -8.471332 10.8061 6.062543 4.084368 -19.52252 -1.615334 -94.27989 35.70169 23.98628 0 0 -25.40589 -4.609721 12.65386 22.36541
1.570995 100.9539 12.80142 -0.1668642 -0.2118032 2.226785 4.400328 -29.73841 4.183025 -0 23.40979 -0 -7.340948 -9.515831 -4.021944 -5.326396 17.32702 -18.71078 -0 6.363489 -0 3.358458 -21.18786 19.46517 -1.571948 -1.183036 4.002779 3.006201 7.658122 -8.532021 0.9580805 21.29802 7.544864 2.809748 -26.14904 9.387582 5.147207 -18.07939 11.3251 88.75094 36.52326 -23.34929 -0 0 12.93989 -8.546362 10.83484 5.917016 4.274198 -19.87394 -1.739509 -93.29491 35.30577 22.5351 0 0 -26.06237 -3.926353 12.82979 21.37285
1.569107 99.79263 16.27406 -0.2124628 -0.446342 2.471012 4.339523 -30.84856 3.110707 -0 18.68453 -0 -7.179401 -8.345357 -4.17789 -5.030065 18.02657 -16.99961 -0 8.032891 -0 2.252116 -21.21155 18.078 -1.61125 -1.155427 3.782306 3.047934 7.68355 -8.665857 0.9593885 21.33583 7.594701 2.864675 -25.98884 9.391313 5.143666 -17.67202 11.28717 89.19431 36.43808 -23.94475 -0 0 12.18495 -8.655165 10.88084 5.792844 4.447674 -20.18288 -1.854554 -92.34488 34.95557 21.10652 0 0 -26.70139 -3.34011 12.93069 20.51425
1.530578 98.52356 20.29812 -0.2167676 -0.9163074 2.662466 4.261249 -30.98688 2.17634 -0 15.0469 -0 -6.918241 -7.039215 -4.372508 -4.795145 18.12632 -15.18448 -0 10.95038 -0 0.9945117 -20.7744 16.73122 -1.660133 -1.103732 3.591897 3.060653 7.699451 -8.751407 0.972828 21.38578 7.633185 2.909673 -25.75593 9.38748 5.143286 -17.2664 11.24167 89.5104 36.32777 -24.36027 -0 0 11.51695 -8.879821 10.96366 5.741155 4.602534 -20.4162 -1.95912 -91.44749 34.58154 19.73993 0 0 -27.19177 -2.827204 12.94674 19.74354
1.470665 97.30453 24.85526 -0.1876954 -1.595585 2.794007 4.257292 -30.20239 1.535652 -0 12.89053 -0 -6.604337 -5.707071 -4.618122 -4.621388 17.69858 -13.45104 -0 15.31628 -0 -0.310076 -19.85066 15.54785 -1.715547 -1.031166 3.44645 3.041629 7.706782 -8.780004 0.9974553 21.44485 7.657163 2.942581 -25.46224 9.374565 5.145911 -16.89214 11.19231 89.6705 36.2006 -24.55638 -0 0 10.98637 -9.213677 11.07874 5.770627 4.728748 -20.55644 -2.047206 -90.66227 34.20222 18.53033 0 0 -27.48728 -2.41763 12.88043 19.10373
1.394734 96.31686 29.87321 -0.145587 -2.434608 2.849366 4.417088 -28.56719 1.304032 -0 12.277 -0 -6.308291 -4.525185 -4.909317 -4.488526 16.77269 -11.94856 -0 21.28557 -0 -1.571469 -18.42308 14.62725 -1.774733 -0.9431225 3.364978 2.986589 7.711294 -8.739558 1.030372 21.50889 7.664108 2.965206 -25.12043 9.34752 5.153322 -16.58736 11.14588 89.63423 36.06979 -24.47567 -0 0 10.65565 -9.656743 11.22042 5.895786 4.817644 -20.58644 -2.113188 -90.0549 33.81699 17.58962 0 0 -27.51619 -2.119977 12.74465 18.60781
1.29836 95.73455 35.23492 -0.1155005 -3.371766 2.799767 4.78689 -26.10872 1.522748 -0 12.99216 -0 -6.101983 -3.701933 -5.216488 -4.360485 15.29036 -10.7655 -0 28.82949 -0 -2.721567 -16.49228 14.04236 -1.83334 -0.8476234 3.370221 2.892561 7.718065 -8.618165 1.067702 21.57166 7.6512 2.97865 -24.7538 9.302144 5.167521 -16.40104 11.11069 89.35963 35.95183 -24.05912 -0 0 10.60148 -10.19607 11.37827 6.12866 4.856952 -20.48591 -2.148483 -89.71034 33.44146 17.06279 0 0 -27.20143 -1.954058 12.55514 18.28753
1.172183 95.68847 40.79788 -0.1221323 -4.3414 2.603561 5.353925 -22.74791 2.142926 -0 14.56494 -0 -6.043895 -3.460712 -5.483111 -4.180296 13.05746 -9.907182 -0 37.64152 -0 -3.720878 -14.07639 13.83809 -1.888495 -0.7515984 3.487039 2.754092 7.733419 -8.399904 1.105521 21.62765 7.615776 2.98583 -24.37927 9.232176 5.192208 -16.38217 11.09558 88.7937 35.86075 -23.23066 -0 0 10.90567 -10.83122 11.54412 6.488211 4.835162 -20.23152 -2.144419 -89.7102 33.07658 17.09244 0 0 -26.44875 -1.92983 12.32641 18.1597
